<svg width="75" height="75" viewBox="0 0 75 75" fill="none" xmlns="http://www.w3.org/2000/svg">
<path fill-rule="evenodd" clip-rule="evenodd" d="M9.25348 37.9671H5.97467C3.89548 37.9671 2.04011 36.5949 1.31283 34.525C0.588695 32.4585 1.14812 30.1241 2.71757 28.6792L31.717 1.93928C34.5203 -0.646425 38.6818 -0.646425 41.4848 1.93928L70.4874 28.6792C72.0569 30.1241 72.6132 32.4585 71.889 34.525C71.1649 36.5949 69.3064 37.9671 67.2303 37.9671H63.9515V67.0644C63.9515 71.4488 60.6105 75 56.4926 75H44.0611C42.6874 75 41.5748 73.8163 41.5748 72.3548V56.4835C41.5748 55.022 40.4591 53.8383 39.0885 53.8383H34.1159C32.7422 53.8383 31.6296 55.022 31.6296 56.4835V72.3548C31.6296 73.8163 30.5139 75 29.1433 75H16.7118C12.5907 75 9.25285 71.4488 9.25285 67.0644L9.25348 37.9671ZM5.97467 32.6767H11.7398C13.1104 32.6767 14.2261 33.8604 14.2261 35.3219V67.0644C14.2261 68.5259 15.3387 69.7096 16.7124 69.7096H26.6576V56.4835C26.6576 52.0991 29.9954 48.5479 34.1165 48.5479H39.0891C43.2071 48.5479 46.548 52.0991 46.548 56.4835V69.7096H56.4932C57.8638 69.7096 58.9795 68.5259 58.9795 67.0644V35.3219C58.9795 33.8604 60.0921 32.6767 61.4658 32.6767H67.2309L38.2283 5.9368C37.2959 5.07383 35.9098 5.07383 34.9744 5.9368L5.97467 32.6767Z" fill="#6B728E"/>
</svg>
