<svg width="279" height="87" viewBox="0 0 279 87" fill="none" xmlns="http://www.w3.org/2000/svg">
<path d="M80.192 65.448C79.3387 65.448 78.6773 65.2133 78.208 64.744C77.7813 64.232 77.568 63.5493 77.568 62.696V22.568C77.568 21.672 77.8027 21.0107 78.272 20.584C78.7413 20.1147 79.4027 19.88 80.256 19.88H95.424C100.245 19.88 103.957 21.0747 106.56 23.464C109.163 25.8107 110.464 29.1387 110.464 33.448C110.464 37.7147 109.163 41.0427 106.56 43.432C103.957 45.8213 100.245 47.016 95.424 47.016H82.816V62.696C82.816 63.5493 82.6027 64.232 82.176 64.744C81.7493 65.2133 81.088 65.448 80.192 65.448ZM82.816 42.6H94.784C98.24 42.6 100.843 41.832 102.592 40.296C104.384 38.7173 105.28 36.4347 105.28 33.448C105.28 30.4187 104.384 28.136 102.592 26.6C100.843 25.0213 98.24 24.232 94.784 24.232H82.816V42.6ZM119.363 65.448C118.51 65.448 117.848 65.2133 117.379 64.744C116.952 64.2747 116.739 63.6133 116.739 62.76V36.072C116.739 35.2187 116.952 34.5787 117.379 34.152C117.806 33.6827 118.424 33.448 119.235 33.448C120.046 33.448 120.664 33.6827 121.091 34.152C121.56 34.5787 121.795 35.2187 121.795 36.072V41.256H121.155C121.838 38.7387 123.139 36.7973 125.059 35.432C126.979 34.0667 129.347 33.3413 132.163 33.256C132.803 33.2133 133.315 33.3627 133.699 33.704C134.083 34.0027 134.296 34.536 134.339 35.304C134.382 36.0293 134.211 36.6053 133.827 37.032C133.443 37.4587 132.846 37.7147 132.035 37.8L131.011 37.928C128.11 38.184 125.87 39.1227 124.291 40.744C122.755 42.3227 121.987 44.4987 121.987 47.272V62.76C121.987 63.6133 121.752 64.2747 121.283 64.744C120.856 65.2133 120.216 65.448 119.363 65.448ZM152.23 65.576C149.2 65.576 146.576 64.9147 144.358 63.592C142.139 62.2693 140.411 60.4133 139.174 58.024C137.979 55.592 137.382 52.7333 137.382 49.448C137.382 46.9733 137.723 44.7547 138.406 42.792C139.088 40.7867 140.091 39.08 141.414 37.672C142.736 36.264 144.294 35.1973 146.086 34.472C147.92 33.704 149.968 33.32 152.23 33.32C155.259 33.32 157.883 33.9813 160.102 35.304C162.32 36.6267 164.027 38.504 165.222 40.936C166.459 43.3253 167.078 46.1627 167.078 49.448C167.078 51.9227 166.736 54.1413 166.054 56.104C165.371 58.0667 164.368 59.7733 163.046 61.224C161.723 62.632 160.144 63.72 158.31 64.488C156.518 65.2133 154.491 65.576 152.23 65.576ZM152.23 61.416C154.15 61.416 155.835 60.9467 157.286 60.008C158.736 59.0693 159.846 57.704 160.614 55.912C161.424 54.12 161.83 51.9653 161.83 49.448C161.83 45.5653 160.955 42.6 159.206 40.552C157.499 38.504 155.174 37.48 152.23 37.48C150.267 37.48 148.56 37.9493 147.11 38.888C145.702 39.784 144.592 41.128 143.782 42.92C143.014 44.6693 142.63 46.8453 142.63 49.448C142.63 53.288 143.504 56.2533 145.254 58.344C147.003 60.392 149.328 61.416 152.23 61.416ZM187.032 65.576C184.6 65.576 182.552 65.1493 180.888 64.296C179.266 63.4 178.05 62.12 177.24 60.456C176.429 58.7493 176.024 56.68 176.024 54.248V37.928H171.736C171.01 37.928 170.456 37.7573 170.072 37.416C169.688 37.032 169.495 36.52 169.495 35.88C169.495 35.24 169.688 34.7493 170.072 34.408C170.456 34.0667 171.01 33.896 171.736 33.896H176.024V26.536C176.024 25.6827 176.258 25.0427 176.728 24.616C177.197 24.1467 177.837 23.912 178.648 23.912C179.458 23.912 180.077 24.1467 180.504 24.616C180.973 25.0427 181.208 25.6827 181.208 26.536V33.896H189.272C189.997 33.896 190.552 34.0667 190.936 34.408C191.32 34.7493 191.512 35.24 191.512 35.88C191.512 36.52 191.32 37.032 190.936 37.416C190.552 37.7573 189.997 37.928 189.272 37.928H181.208V53.736C181.208 56.168 181.72 58.024 182.744 59.304C183.768 60.5413 185.432 61.16 187.736 61.16C188.546 61.16 189.229 61.0747 189.784 60.904C190.381 60.7333 190.872 60.648 191.256 60.648C191.64 60.6053 191.96 60.7333 192.216 61.032C192.472 61.3307 192.6 61.8427 192.6 62.568C192.6 63.08 192.493 63.5493 192.28 63.976C192.109 64.4027 191.789 64.7013 191.32 64.872C190.808 65.0427 190.125 65.192 189.272 65.32C188.461 65.4907 187.714 65.576 187.032 65.576ZM210.63 65.576C207.345 65.576 204.507 64.936 202.118 63.656C199.771 62.3333 197.937 60.4773 196.614 58.088C195.334 55.6987 194.694 52.84 194.694 49.512C194.694 46.2693 195.334 43.4533 196.614 41.064C197.894 38.632 199.643 36.7333 201.862 35.368C204.123 34.0027 206.726 33.32 209.67 33.32C211.761 33.32 213.638 33.6827 215.302 34.408C216.966 35.0907 218.374 36.0933 219.526 37.416C220.721 38.7387 221.617 40.3387 222.214 42.216C222.854 44.0933 223.174 46.2053 223.174 48.552C223.174 49.2347 222.982 49.7467 222.598 50.088C222.214 50.3867 221.659 50.536 220.934 50.536H198.662V47.144H219.718L218.694 47.976C218.694 45.672 218.353 43.7307 217.67 42.152C216.987 40.5307 215.985 39.2933 214.662 38.44C213.382 37.5867 211.761 37.16 209.798 37.16C207.622 37.16 205.766 37.672 204.23 38.696C202.737 39.6773 201.606 41.064 200.838 42.856C200.07 44.6053 199.686 46.6533 199.686 49V49.384C199.686 53.3093 200.625 56.296 202.502 58.344C204.422 60.392 207.131 61.416 210.63 61.416C212.081 61.416 213.51 61.224 214.918 60.84C216.369 60.456 217.777 59.816 219.142 58.92C219.739 58.536 220.273 58.3653 220.742 58.408C221.254 58.408 221.659 58.5573 221.958 58.856C222.257 59.112 222.449 59.4533 222.534 59.88C222.662 60.264 222.619 60.6907 222.406 61.16C222.235 61.6293 221.873 62.0347 221.318 62.376C219.91 63.4 218.246 64.1893 216.326 64.744C214.406 65.2987 212.507 65.576 210.63 65.576ZM243.861 65.576C240.746 65.576 238.058 64.8933 235.797 63.528C233.535 62.1627 231.786 60.264 230.549 57.832C229.354 55.3573 228.757 52.4987 228.757 49.256C228.757 46.7813 229.098 44.5627 229.781 42.6C230.463 40.6373 231.466 38.9733 232.789 37.608C234.111 36.2 235.69 35.1333 237.525 34.408C239.402 33.6827 241.514 33.32 243.861 33.32C245.397 33.32 246.997 33.5547 248.661 34.024C250.325 34.4933 251.839 35.304 253.205 36.456C253.631 36.7547 253.909 37.1173 254.037 37.544C254.165 37.9707 254.165 38.3973 254.037 38.824C253.909 39.208 253.695 39.5493 253.397 39.848C253.098 40.104 252.714 40.2533 252.245 40.296C251.818 40.3387 251.37 40.1893 250.901 39.848C249.791 38.9947 248.661 38.3973 247.509 38.056C246.357 37.7147 245.247 37.544 244.181 37.544C242.517 37.544 241.066 37.8213 239.829 38.376C238.591 38.888 237.546 39.6347 236.693 40.616C235.839 41.5973 235.178 42.8133 234.709 44.264C234.282 45.7147 234.069 47.4 234.069 49.32C234.069 53.032 234.943 55.976 236.693 58.152C238.442 60.2853 240.938 61.352 244.181 61.352C245.247 61.352 246.335 61.1813 247.445 60.84C248.597 60.4987 249.749 59.9013 250.901 59.048C251.37 58.7067 251.818 58.5573 252.245 58.6C252.671 58.6427 253.034 58.8133 253.333 59.112C253.631 59.368 253.823 59.7093 253.909 60.136C254.037 60.5627 254.037 60.9893 253.909 61.416C253.781 61.8 253.503 62.1413 253.077 62.44C251.711 63.5493 250.218 64.36 248.597 64.872C246.975 65.3413 245.397 65.576 243.861 65.576ZM272.782 65.576C270.35 65.576 268.302 65.1493 266.638 64.296C265.016 63.4 263.8 62.12 262.99 60.456C262.179 58.7493 261.774 56.68 261.774 54.248V37.928H257.486C256.76 37.928 256.206 37.7573 255.822 37.416C255.438 37.032 255.245 36.52 255.245 35.88C255.245 35.24 255.438 34.7493 255.822 34.408C256.206 34.0667 256.76 33.896 257.486 33.896H261.774V26.536C261.774 25.6827 262.008 25.0427 262.478 24.616C262.947 24.1467 263.587 23.912 264.398 23.912C265.208 23.912 265.827 24.1467 266.254 24.616C266.723 25.0427 266.958 25.6827 266.958 26.536V33.896H275.022C275.747 33.896 276.302 34.0667 276.686 34.408C277.07 34.7493 277.262 35.24 277.262 35.88C277.262 36.52 277.07 37.032 276.686 37.416C276.302 37.7573 275.747 37.928 275.022 37.928H266.958V53.736C266.958 56.168 267.47 58.024 268.494 59.304C269.518 60.5413 271.182 61.16 273.486 61.16C274.296 61.16 274.979 61.0747 275.534 60.904C276.131 60.7333 276.622 60.648 277.006 60.648C277.39 60.6053 277.71 60.7333 277.966 61.032C278.222 61.3307 278.35 61.8427 278.35 62.568C278.35 63.08 278.243 63.5493 278.03 63.976C277.859 64.4027 277.539 64.7013 277.07 64.872C276.558 65.0427 275.875 65.192 275.022 65.32C274.211 65.4907 273.464 65.576 272.782 65.576Z" fill="url(#paint0_linear_144_20)"/>
<path fill-rule="evenodd" clip-rule="evenodd" d="M63.3275 46.7993C61.0182 59.8267 50.418 71.3416 31.8238 81.0235C14.4498 71.9544 3.97206 60.9783 0.681089 48.3973C-0.30585 44.6309 0.0322276 25.3385 0.162528 17.9606L31.9999 4L63.8161 17.9483C64.0512 28.7774 64.2088 41.8153 63.3266 46.7984L63.3275 46.7993Z" fill="url(#paint1_linear_144_20)"/>
<path d="M50.9097 52.8052L31.1168 33.8441C33.3928 29.2104 32.4251 23.5997 28.6685 20.0093C23.9364 15.4679 16.3898 15.6299 11.8488 20.3704C7.30781 25.1108 7.4696 32.6576 12.2101 37.1986C14.5506 39.4408 17.623 40.5626 20.7031 40.4965C22.5628 40.4565 24.4295 39.9763 26.137 39.0426L33.3451 45.9477L31.0458 48.3393C29.6729 49.7724 29.7219 52.0555 31.1551 53.4284C31.8674 54.1108 32.7964 54.4397 33.7179 54.4199C34.6394 54.4001 35.5535 54.0317 36.2358 53.3193L38.5349 50.9194L40.3327 52.6416L38.0337 55.0416C36.6608 56.4747 36.7098 58.7578 38.1427 60.1224C38.8635 60.8129 39.7926 61.1418 40.7141 61.122C41.6356 61.1023 42.5497 60.7338 43.2318 60.0131L45.5311 57.6216L45.9296 58.0034C46.6248 58.6612 47.5295 59.0156 48.4925 58.9949C49.4555 58.9743 50.3524 58.5812 51.0188 57.8941C52.3917 56.461 52.3429 54.1781 50.9097 52.8052ZM17.1898 32.0003C16.2824 31.1311 15.7673 29.9627 15.7402 28.7008C15.7131 27.4389 16.1778 26.2578 17.0471 25.3504C17.9405 24.4093 19.1345 23.9268 20.3383 23.901C21.5421 23.8751 22.7557 24.3059 23.697 25.2077C25.5711 27.003 25.6351 29.9834 23.8397 31.8578C22.938 32.7991 21.744 33.2816 20.5402 33.3074C19.3364 33.3332 18.1229 32.9023 17.1898 32.0003Z" fill="url(#paint2_linear_144_20)"/>
<defs>
<linearGradient id="paint0_linear_144_20" x1="85.5" y1="37.5" x2="278" y2="50.7079" gradientUnits="userSpaceOnUse">
<stop stop-color="#515571"/>
<stop offset="1" stop-color="#272B45"/>
</linearGradient>
<linearGradient id="paint1_linear_144_20" x1="32" y1="4" x2="32" y2="81.0235" gradientUnits="userSpaceOnUse">
<stop stop-color="#E6E8F4"/>
<stop offset="1" stop-color="#4D516D"/>
</linearGradient>
<linearGradient id="paint2_linear_144_20" x1="29.7333" y1="16.5042" x2="30.6958" y2="61.3371" gradientUnits="userSpaceOnUse">
<stop stop-color="#42455A"/>
<stop offset="1" stop-color="#141625"/>
</linearGradient>
</defs>
</svg>
