<svg width="75" height="75" viewBox="0 0 75 75" fill="none" xmlns="http://www.w3.org/2000/svg">
<path d="M72.726 30.6452H67.5672C66.8649 28.0915 65.8182 25.6395 64.4544 23.3533L68.1072 19.798C68.3174 19.5934 68.4842 19.3505 68.5979 19.0831C68.7117 18.8158 68.7703 18.5293 68.7703 18.2399C68.7703 17.9505 68.7117 17.664 68.5979 17.3966C68.4842 17.1293 68.3174 16.8864 68.1072 16.6817L59.9007 8.69415C59.6905 8.48953 59.4409 8.32721 59.1663 8.21647C58.8916 8.10573 58.5972 8.04873 58.2999 8.04873C58.0026 8.04873 57.7082 8.10573 57.4335 8.21647C57.1589 8.32721 56.9093 8.48953 56.6991 8.69415L53.0515 12.2517C50.7025 10.9244 48.1835 9.90566 45.5598 9.22189V4.20347C45.5598 3.61908 45.3213 3.05861 44.8968 2.64538C44.4722 2.23215 43.8964 2 43.296 2H31.6938C31.0934 2 30.5176 2.23215 30.093 2.64538C29.6685 3.05861 29.43 3.61908 29.43 4.20347V9.22464C26.8064 9.90841 24.2873 10.9272 21.9383 12.2544L18.2856 8.69911C18.0754 8.49449 17.8258 8.33217 17.5512 8.22143C17.2765 8.11069 16.9821 8.05369 16.6848 8.05369C16.3875 8.05369 16.0931 8.11069 15.8184 8.22143C15.5438 8.33217 15.2942 8.49449 15.084 8.69911L6.87756 16.6867C6.66733 16.8913 6.50056 17.1342 6.38679 17.4016C6.27301 17.6689 6.21445 17.9555 6.21445 18.2448C6.21445 18.5342 6.27301 18.8208 6.38679 19.0881C6.50056 19.3554 6.66733 19.5984 6.87756 19.803L10.5303 23.3583C9.16655 25.6445 8.11986 28.0964 7.41748 30.6501H2.26384C1.66343 30.6501 1.08762 30.8823 0.663064 31.2955C0.238511 31.7087 0 32.2692 0 32.8536V44.1464C0 44.7308 0.238511 45.2913 0.663064 45.7045C1.08762 46.1177 1.66343 46.3499 2.26384 46.3499H7.42258C8.12495 48.9036 9.17165 51.3555 10.5354 53.6417L6.88265 57.197C6.67242 57.4016 6.50566 57.6446 6.39188 57.9119C6.2781 58.1792 6.21954 58.4658 6.21954 58.7552C6.21954 59.0445 6.2781 59.3311 6.39188 59.5984C6.50566 59.8658 6.67242 60.1087 6.88265 60.3133L15.0891 68.3009C15.2993 68.5055 15.5489 68.6678 15.8235 68.7786C16.0982 68.8893 16.3926 68.9463 16.6899 68.9463C16.9872 68.9463 17.2816 68.8893 17.5563 68.7786C17.8309 68.6678 18.0805 68.5055 18.2907 68.3009L21.9434 64.7456C24.2924 66.0728 26.8114 67.0916 29.4351 67.7754V72.7965C29.4351 73.3809 29.6736 73.9414 30.0981 74.3546C30.5227 74.7678 31.0985 75 31.6989 75H43.3011C43.9015 75 44.4773 74.7678 44.9019 74.3546C45.3264 73.9414 45.5649 73.3809 45.5649 72.7965V67.7754C48.1886 67.0916 50.7076 66.0728 53.0566 64.7456L56.7093 68.3009C56.9195 68.5055 57.1691 68.6678 57.4437 68.7786C57.7184 68.8893 58.0128 68.9463 58.3101 68.9463C58.6074 68.9463 58.9018 68.8893 59.1765 68.7786C59.4511 68.6678 59.7007 68.5055 59.9109 68.3009L68.1173 60.3133C68.3276 60.1087 68.4943 59.8658 68.6081 59.5984C68.7219 59.3311 68.7805 59.0445 68.7805 58.7552C68.7805 58.4658 68.7219 58.1792 68.6081 57.9119C68.4943 57.6446 68.3276 57.4016 68.1173 57.197L64.4646 53.6417C65.8284 51.3555 66.875 48.9036 67.5774 46.3499H72.7362C73.3366 46.3499 73.9124 46.1177 74.3369 45.7045C74.7615 45.2913 75 44.7308 75 44.1464V32.8486C75 32.5584 74.9411 32.2711 74.8267 32.0031C74.7123 31.7351 74.5446 31.4918 74.3333 31.287C74.122 31.0823 73.8713 30.9202 73.5954 30.81C73.3196 30.6999 73.0241 30.6439 72.726 30.6452ZM70.4621 41.938H65.7754C65.2535 41.9379 64.7476 42.1133 64.3433 42.4345C63.9391 42.7557 63.6612 43.203 63.5568 43.7007C62.8807 46.9294 61.5711 50.0008 59.6998 52.7466C59.4123 53.1702 59.2839 53.6776 59.3364 54.1828C59.3889 54.688 59.619 55.16 59.9879 55.5191L63.3072 58.7505L58.3053 63.6191L54.9854 60.3882C54.6164 60.029 54.1313 59.8049 53.6122 59.7539C53.093 59.7028 52.5717 59.8278 52.1363 60.1078C49.3154 61.9292 46.1601 63.2041 42.8432 63.8625C42.332 63.9641 41.8725 64.2345 41.5425 64.6279C41.2125 65.0212 41.0322 65.5135 41.0322 66.0214V70.5831H33.9576V66.0214C33.9576 65.5135 33.7774 65.0212 33.4473 64.6279C33.1173 64.2345 32.6578 63.9641 32.1466 63.8625C28.8297 63.2041 25.6744 61.9292 22.8535 60.1078C22.4182 59.8278 21.8968 59.7028 21.3776 59.7539C20.8585 59.8049 20.3734 60.029 20.0045 60.3882L16.6845 63.6191L11.6826 58.7505L15.0019 55.5191C15.3708 55.16 15.6009 54.688 15.6534 54.1828C15.7059 53.6776 15.5775 53.1702 15.29 52.7466C13.4187 50.0008 12.1091 46.9294 11.433 43.7007C11.3286 43.203 11.0508 42.7557 10.6465 42.4345C10.2422 42.1133 9.73629 41.9379 9.21441 41.938H4.52769V35.0521H9.21441C9.73629 35.0522 10.2422 34.8768 10.6465 34.5556C11.0508 34.2344 11.3286 33.787 11.433 33.2893C12.1091 30.0607 13.4187 26.9893 15.29 24.2435C15.5775 23.8198 15.7059 23.3125 15.6534 22.8073C15.6009 22.3021 15.3708 21.8301 15.0019 21.471L11.6826 18.2396L16.6845 13.371L20.0067 16.6019C20.3757 16.961 20.8607 17.1851 21.3799 17.2362C21.8991 17.2873 22.4204 17.1623 22.8558 16.8823C25.676 15.0611 28.8305 13.7863 32.1466 13.1275C32.6578 13.026 33.1173 12.7556 33.4473 12.3622C33.7774 11.9688 33.9576 11.4766 33.9576 10.9687V6.40695H41.0322V10.9687C41.0322 11.4766 41.2125 11.9688 41.5425 12.3622C41.8725 12.7556 42.332 13.026 42.8432 13.1275C46.1601 13.786 49.3154 15.0608 52.1363 16.8823C52.5717 17.1623 53.093 17.2873 53.6122 17.2362C54.1313 17.1851 54.6164 16.961 54.9854 16.6019L58.3053 13.371L63.3072 18.2396L59.9879 21.4732C59.619 21.8323 59.3889 22.3043 59.3364 22.8095C59.2839 23.3147 59.4123 23.822 59.6998 24.2457C61.5711 26.9915 62.8807 30.0629 63.5568 33.2915C63.6612 33.7892 63.9391 34.2366 64.3433 34.5578C64.7476 34.879 65.2535 35.0544 65.7754 35.0543H70.4621V41.938Z" fill="#6B728E"/>
<path d="M37.5 21C34.2366 21 31.0465 22.0264 28.3331 23.9493C25.6197 25.8722 23.5048 28.6053 22.256 31.803C21.0071 35.0007 20.6804 38.5194 21.317 41.9141C21.9537 45.3087 23.5252 48.4269 25.8327 50.8744C28.1403 53.3218 31.0803 54.9885 34.281 55.6637C37.4817 56.339 40.7993 55.9924 43.8143 54.6679C46.8293 53.3434 49.4062 51.1003 51.2193 48.2225C53.0323 45.3446 54 41.9612 54 38.5C53.9951 33.8603 52.2551 29.4122 49.1618 26.1314C46.0685 22.8507 41.8746 21.0052 37.5 21ZM37.5 51.4679C35.0818 51.4679 32.7178 50.7074 30.7071 49.2824C28.6964 47.8575 27.1292 45.8322 26.2038 43.4626C25.2784 41.093 25.0363 38.4856 25.508 35.9701C25.9798 33.4545 27.1443 31.1439 28.8543 29.3303C30.5642 27.5167 32.7429 26.2816 35.1147 25.7812C37.4864 25.2809 39.9449 25.5377 42.179 26.5192C44.4132 27.5007 46.3228 29.1628 47.6663 31.2954C49.0098 33.428 49.7269 35.9352 49.7269 38.5C49.7232 41.9381 48.4339 45.2343 46.1417 47.6654C43.8495 50.0965 40.7417 51.464 37.5 51.4679Z" fill="#6B728E"/>
</svg>
